<svg width="122" height="80" viewBox="0 0 122 80" fill="none" xmlns="http://www.w3.org/2000/svg">
<path d="M7.68495 79.3069C7.81136 79.3693 7.93629 79.3693 8.06271 79.3693C8.37801 79.3693 8.56689 79.3069 8.69331 78.9291C9.00861 78.3 9.00861 78.3 9.00861 78.3C7.18225 73.8903 7.18225 73.8903 7.18225 73.8903C7.87532 73.8903 7.87531 73.8903 7.87531 73.8903C9.32391 77.4181 9.32391 77.418 9.32391 77.418C10.7725 73.8903 10.7725 73.8903 10.7725 73.8903C11.528 73.8903 11.528 73.8903 11.528 73.8903C9.32391 79.118 9.32391 79.118 9.32391 79.118C9.07108 79.7471 8.63085 79.9999 8.0642 79.9999C7.93778 79.9999 7.68643 79.9375 7.56002 79.9375L7.68495 79.3069Z" fill="#A67EB1"/>
<path d="M15.621 77.5431C15.621 79.8736 15.621 79.8736 15.621 79.8736C14.9279 79.8736 14.9279 79.8736 14.9279 79.8736C14.9279 73.8888 14.9279 73.8889 14.9279 73.8889C15.621 73.8889 15.621 73.8889 15.621 73.8889C15.621 74.5195 15.621 74.5194 15.621 74.5194C15.9363 74.0792 16.5029 73.7639 17.0696 73.7639C18.2029 73.7639 19.0224 74.6459 19.0224 76.032C19.0224 77.4181 18.2044 78.3001 17.0696 78.3001C16.5044 78.2986 16.0002 78.0472 15.621 77.5431ZM18.3308 76.032C18.3308 75.0876 17.7641 74.3945 16.9446 74.3945C16.378 74.3945 15.8738 74.7098 15.621 75.0876C15.621 77.0404 15.621 77.0404 15.621 77.0404C15.8738 77.4181 16.3765 77.7334 16.9446 77.7334C17.7641 77.7319 18.3308 76.9764 18.3308 76.032Z" fill="#A67EB1"/>
<path d="M22.4249 76.032C22.4249 74.7723 23.2429 73.7639 24.5665 73.7639C25.8887 73.7639 26.7707 74.7723 26.7707 76.032C26.7707 77.2917 25.8887 78.3001 24.5665 78.3001C23.2429 78.2986 22.4249 77.2917 22.4249 76.032ZM26.0151 76.032C26.0151 75.15 25.5109 74.3945 24.5665 74.3945C23.6846 74.3945 23.1179 75.15 23.1179 76.032C23.1179 76.9139 23.6846 77.7319 24.5665 77.7319C25.5109 77.7319 26.0151 76.9139 26.0151 76.032Z" fill="#A67EB1"/>
<path d="M33.5107 78.236V74.4569H31.2442V78.236H30.5511V73.8903H34.1413V78.236H33.5107Z" fill="#A67EB1"/>
<path d="M37.9848 76.032C37.9848 74.7723 38.8668 73.7639 40.1265 73.7639C41.4486 73.7639 42.2057 74.7723 42.2057 76.0945C42.2057 76.2833 42.2057 76.2833 42.2057 76.2833C38.6779 76.2833 38.6779 76.2833 38.6779 76.2833C38.7403 77.1028 39.3085 77.7944 40.2529 77.7944C40.7571 77.7944 41.2612 77.5431 41.5751 77.2278C41.9528 77.6695 41.9528 77.6695 41.9528 77.6695C41.5111 78.1097 40.882 78.3001 40.1889 78.3001C38.9292 78.2986 37.9848 77.4166 37.9848 76.032ZM40.1265 74.3306C39.1821 74.3306 38.7403 75.0861 38.6779 75.7792C41.5751 75.7792 41.5751 75.7792 41.5751 75.7792C41.5111 75.1501 41.1333 74.3306 40.1265 74.3306Z" fill="#A67EB1"/>
<path d="M46.6777 77.5431C46.6777 79.8736 46.6777 79.8736 46.6777 79.8736C45.9846 79.8736 45.9846 79.8736 45.9846 79.8736C45.9846 73.8888 45.9846 73.8889 45.9846 73.8889C46.6777 73.8889 46.6777 73.8889 46.6777 73.8889C46.6777 74.5195 46.6777 74.5194 46.6777 74.5194C46.993 74.0792 47.5596 73.7639 48.1263 73.7639C49.3235 73.7639 50.0791 74.6459 50.0791 76.032C50.0791 77.4181 49.3235 78.3001 48.1263 78.3001C47.5581 78.2986 47.0555 78.0472 46.6777 77.5431ZM49.386 76.032C49.386 75.0876 48.8818 74.3945 47.9999 74.3945C47.4332 74.3945 46.929 74.7098 46.6777 75.0876C46.6777 77.0404 46.6777 77.0404 46.6777 77.0404C46.929 77.4181 47.4332 77.7334 47.9999 77.7334C48.8818 77.7319 49.386 76.9764 49.386 76.032Z" fill="#A67EB1"/>
<path d="M56.5664 78.2361C56.5664 77.7319 56.5664 77.7319 56.5664 77.7319C56.2511 78.1097 55.7484 78.2986 55.1803 78.2986C54.4248 78.2986 53.6053 77.8569 53.6053 76.9125C53.6053 75.9041 54.4233 75.4639 55.1803 75.4639C55.7469 75.4639 56.2511 75.6528 56.5664 76.0305C56.5664 75.275 56.5664 75.275 56.5664 75.275C56.5664 74.7083 56.1262 74.3306 55.4956 74.3306C54.9914 74.3306 54.5512 74.5195 54.1719 74.9612C53.8566 74.457 53.8566 74.457 53.8566 74.457C54.2984 74.0168 54.865 73.7639 55.5581 73.7639C56.5025 73.7639 57.2595 74.2056 57.2595 75.2125C57.2595 78.2361 57.2595 78.2361 57.2595 78.2361H56.5664ZM56.5664 77.2917C56.5664 76.4722 56.5664 76.4722 56.5664 76.4722C56.3151 76.0945 55.8734 75.968 55.3692 75.968C54.7386 75.968 54.2984 76.3458 54.2984 76.9125C54.2984 77.4166 54.7386 77.8569 55.3692 77.8569C55.8734 77.8584 56.3151 77.6695 56.5664 77.2917Z" fill="#A67EB1"/>
<path d="M62.1098 78.236V74.4569H60.85V73.8903H64.0625V74.4569H62.8028V78.236H62.1098Z" fill="#A67EB1"/>
<path d="M67.4016 76.032C67.4016 74.7723 68.2211 73.7639 69.5433 73.7639C70.8669 73.7639 71.6849 74.7723 71.6849 76.032C71.6849 77.2917 70.8654 78.3001 69.5433 78.3001C68.2211 78.2986 67.4016 77.2917 67.4016 76.032ZM70.9919 76.032C70.9919 75.15 70.4877 74.3945 69.5433 74.3945C68.5989 74.3945 68.0947 75.15 68.0947 76.032C68.0947 76.9139 68.5989 77.7319 69.5433 77.7319C70.4892 77.7319 70.9919 76.9139 70.9919 76.032Z" fill="#A67EB1"/>
<path d="M76.2209 77.5431C76.2209 79.8736 76.2209 79.8736 76.2209 79.8736C75.5278 79.8736 75.5278 79.8736 75.5278 79.8736C75.5278 73.8888 75.5278 73.8889 75.5278 73.8889C76.2209 73.8889 76.2209 73.8889 76.2209 73.8889C76.2209 74.5195 76.2209 74.5194 76.2209 74.5194C76.5362 74.0792 77.0404 73.7639 77.6695 73.7639C78.8028 73.7639 79.6223 74.6459 79.6223 76.032C79.6223 77.4181 78.8028 78.3001 77.6695 78.3001C77.0404 78.2986 76.5362 78.0472 76.2209 77.5431ZM78.8667 76.032C78.8667 75.0876 78.3626 74.3945 77.4806 74.3945C76.9764 74.3945 76.4098 74.7098 76.2209 75.0876C76.2209 77.0404 76.2209 77.0404 76.2209 77.0404C76.4098 77.4181 76.9764 77.7334 77.4806 77.7334C78.3626 77.7319 78.8667 76.9764 78.8667 76.032Z" fill="#A67EB1"/>
<path d="M8.44023 41.7638L5.79439 49.511L3.14854 41.7638H0L4.03049 52.4721H7.55828L11.5903 41.7638H8.44023Z" fill="#83276B"/>
<path d="M12.2835 47.118C12.2835 43.843 14.7405 41.575 18.0154 41.575C21.2904 41.575 23.7473 43.843 23.7473 47.118C23.7473 50.3944 21.2904 52.661 18.0154 52.661C14.7405 52.661 12.2835 50.3929 12.2835 47.118ZM20.9766 47.118C20.9766 45.3541 19.7793 44.0319 18.0154 44.0319C16.2515 44.0319 15.1182 45.3556 15.1182 47.118C15.1182 48.8819 16.253 50.2041 18.0154 50.2041C19.7793 50.2041 20.9766 48.8819 20.9766 47.118Z" fill="#83276B"/>
<path d="M28.2196 52.4721V48.1263L24.1891 41.7638H27.2752L29.6058 45.7318L31.9363 41.7638H35.0863L30.9919 48.1263V52.4721H28.2196Z" fill="#83276B"/>
<path d="M42.8347 52.4721L42.3305 50.9596H38.1097L37.543 52.4721H34.393L38.425 41.7638H41.8888L45.9833 52.4721H42.8347ZM40.1889 44.4721L38.8027 48.5041H41.575L40.1889 44.4721Z" fill="#83276B"/>
<path d="M46.4876 47.118C46.4876 43.7166 49.1335 41.575 52.2835 41.575C54.678 41.575 56.1266 42.8347 56.8821 44.1569C54.5516 45.4166 54.5516 45.4166 54.5516 45.4166C54.1738 44.661 53.3543 44.0304 52.2835 44.0304C50.5196 44.0304 49.3223 45.3541 49.3223 47.1165C49.3223 48.8804 50.5196 50.2026 52.2835 50.2026C53.103 50.2026 53.921 49.8873 54.2987 49.572C54.2987 48.7525 54.2987 48.7525 54.2987 48.7525C51.8418 48.7525 51.8418 48.7525 51.8418 48.7525C51.8418 46.2955 51.8418 46.2955 51.8418 46.2955C57.007 46.2955 57.007 46.2955 57.007 46.2955C57.007 50.5789 57.007 50.5789 57.007 50.5789C55.8737 51.8386 54.2987 52.6581 52.282 52.6581C49.1335 52.661 46.4876 50.5194 46.4876 47.118Z" fill="#83276B"/>
<path d="M59.4656 52.4721V41.7638H67.3392V44.1568H62.2364V45.8582H67.2128V48.2512H62.2364V50.0776H67.3392V52.4721H59.4656Z" fill="#83276B"/>
<path d="M75.7168 52.4721C73.8904 48.8818 73.8904 48.8818 73.8904 48.8818C72.5043 48.8818 72.5043 48.8818 72.5043 48.8818C72.5043 52.4721 72.5043 52.4721 72.5043 52.4721C69.7321 52.4721 69.7321 52.4721 69.7321 52.4721C69.7321 41.7638 69.7321 41.7638 69.7321 41.7638C75.0862 41.7638 75.0862 41.7638 75.0862 41.7638C77.4792 41.7638 78.8029 43.3388 78.8029 45.3541C78.8029 47.1804 77.6696 48.1888 76.6612 48.5665C78.8668 52.4721 78.8668 52.4721 78.8668 52.4721H75.7168ZM76.0321 45.2901C76.0321 44.597 75.403 44.1568 74.7099 44.1568C72.5058 44.1568 72.5058 44.1568 72.5058 44.1568C72.5058 46.4874 72.5058 46.4873 72.5058 46.4873C74.7099 46.4873 74.7099 46.4873 74.7099 46.4873C75.4015 46.4873 76.0321 46.0471 76.0321 45.2901Z" fill="#83276B"/>
<path d="M1.00653 63.3069C1.00653 59.968 3.46349 57.7639 6.54957 57.7639C8.43988 57.7639 9.76206 58.5834 10.7065 59.7792C9.63564 60.4083 9.63564 60.4083 9.63564 60.4083C8.94258 59.5263 7.80928 58.9597 6.54957 58.9597C4.21902 58.9597 2.39266 60.7236 2.39266 63.3055C2.39266 65.8249 4.21902 67.6513 6.54957 67.6513C7.80928 67.6513 8.88011 67.0207 9.3843 66.5165C9.3843 64.3123 9.3843 64.3123 9.3843 64.3123C5.73008 64.3123 5.73008 64.3123 5.73008 64.3123C5.73008 63.1151 5.73008 63.1151 5.73008 63.1151C10.7689 63.1151 10.7689 63.1151 10.7689 63.1151C10.7689 67.0207 10.7689 67.0207 10.7689 67.0207C9.76057 68.0915 8.31198 68.847 6.54808 68.847C3.46349 68.85 1.00653 66.6459 1.00653 63.3069Z" fill="#C017A2"/>
<path d="M25.5749 68.6611C22.8027 64.3777 22.8027 64.3777 22.8027 64.3777C20.661 64.3777 20.661 64.3777 20.661 64.3777C20.661 68.6611 20.661 68.6611 20.661 68.6611C19.3373 68.6611 19.3373 68.6611 19.3373 68.6611C19.3373 57.9528 19.3373 57.9528 19.3373 57.9528C23.6207 57.9528 23.6207 57.9528 23.6207 57.9528C25.6359 57.9528 27.022 59.2125 27.022 61.1653C27.022 63.118 25.6984 64.1264 24.2498 64.2513C27.147 68.6611 27.147 68.6611 27.147 68.6611H25.5749ZM25.6374 61.1653C25.6374 59.968 24.7555 59.15 23.4957 59.15C20.661 59.15 20.661 59.15 20.661 59.15C20.661 63.2445 20.661 63.2445 20.661 63.2445C23.4957 63.2445 23.4957 63.2445 23.4957 63.2445C24.7555 63.2445 25.6374 62.3625 25.6374 61.1653Z" fill="#C017A2"/>
<path d="M35.0862 63.3069C35.0862 60.1569 37.2279 57.7639 40.4404 57.7639C43.5904 57.7639 45.7321 60.1569 45.7321 63.3069C45.7321 66.457 43.5904 68.85 40.4404 68.85C37.2279 68.85 35.0862 66.457 35.0862 63.3069ZM44.346 63.3069C44.346 60.7875 42.8334 58.9612 40.4404 58.9612C37.9834 58.9612 36.4724 60.7875 36.4724 63.3069C36.4724 65.7639 37.9849 67.6527 40.4404 67.6527C42.8349 67.6527 44.346 65.7639 44.346 63.3069Z" fill="#C017A2"/>
<path d="M54.236 64.5042C54.236 57.9528 54.236 57.9528 54.236 57.9528C55.6221 57.9528 55.6221 57.9528 55.6221 57.9528C55.6221 64.4417 55.6221 64.4417 55.6221 64.4417C55.6221 66.3945 56.6305 67.6542 58.6457 67.6542C60.5985 67.6542 61.6693 66.3945 61.6693 64.4417C61.6693 57.9528 61.6693 57.9528 61.6693 57.9528C62.9915 57.9528 62.9915 57.9528 62.9915 57.9528C62.9915 64.5042 62.9915 64.5042 62.9915 64.5042C62.9915 67.15 61.5429 68.8514 58.6457 68.8514C55.7485 68.85 54.236 67.1485 54.236 64.5042Z" fill="#C017A2"/>
<path d="M71.9374 68.6611C71.9374 57.9528 71.9374 57.9528 71.9374 57.9528C76.2207 57.9528 76.2207 57.9528 76.2207 57.9528C78.4248 57.9528 79.6221 59.4014 79.6221 61.1653C79.6221 62.9292 78.3624 64.3777 76.2207 64.3777C73.2596 64.3777 73.2595 64.3777 73.2595 64.3777C73.2595 68.6611 73.2595 68.6611 73.2595 68.6611H71.9374ZM78.2359 61.1653C78.2359 59.968 77.354 59.15 76.0943 59.15C73.2595 59.15 73.2595 59.15 73.2595 59.15C73.2595 63.182 73.2595 63.182 73.2595 63.182C76.0943 63.182 76.0943 63.182 76.0943 63.182C77.354 63.1805 78.2359 62.3625 78.2359 61.1653Z" fill="#C017A2"/>
<path d="M98.0151 52.661C93.6053 52.661 90.0151 49.0707 90.0151 44.661C90.0151 31.118 90.0151 31.118 90.0151 31.118C76.4721 31.118 76.4721 31.118 76.4721 31.118C72.0623 31.118 68.472 27.5277 68.472 23.118C68.472 18.7082 72.0623 15.1804 76.4721 15.1804C98.0151 15.1804 98.0151 15.1804 98.0151 15.1804C102.425 15.1804 106.015 18.7082 106.015 23.118C106.015 44.661 106.015 44.661 106.015 44.661C106.017 49.0707 102.425 52.661 98.0151 52.661Z" fill="#83276B"/>
<path d="M121.26 8.06246C121.26 12.4722 117.67 16.0625 113.26 16.0625C108.788 16.0625 105.197 12.4722 105.197 8.06246C105.197 3.59026 108.788 0 113.26 0C117.67 0 121.26 3.59026 121.26 8.06246Z" fill="#83276B"/>
<path d="M2.26624 78.236V74.4569H1.00653V73.8903H4.21902V74.4569H2.95931V78.236H2.26624Z" fill="#A67EB1"/>
</svg>
