<svg width="179" height="62" viewBox="0 0 179 62" fill="none" xmlns="http://www.w3.org/2000/svg">
<path d="M126.622 34.8414C126.675 34.7949 126.675 34.7018 126.622 34.642C126.323 34.3494 125.545 33.5649 125.239 33.2724C125.186 33.2258 125.113 33.2258 125.053 33.2657C124.767 33.5715 123.949 34.3627 123.663 34.6553C123.63 34.7151 123.63 34.7882 123.67 34.8348C123.956 35.134 124.76 35.9384 125.053 36.2177C125.113 36.2642 125.186 36.2642 125.239 36.2177H125.252C125.545 35.9318 126.323 35.134 126.622 34.8414Z" fill="#4A4A49"/>
<path d="M28.2697 26.2182C28.2697 26.2115 28.3827 26.1118 28.4492 26.165C28.4957 26.1916 28.4758 26.3378 28.4758 26.3378C28.3162 27.488 27.7577 31.6633 27.4652 37.1019C27.4253 37.9928 27.3788 38.8837 27.3588 39.7746L27.3522 40.0804L27.525 39.8477C28.2697 38.8704 29.5861 38.3119 31.1551 38.3052C32.1391 38.3052 34.506 38.631 35.0512 41.6495C35.2307 42.7132 34.9914 45.1732 32.7708 46.955C32.0859 47.4936 30.2177 48.3845 28.1301 48.4177C26.3349 48.451 24.5132 48.3313 23.3497 47.3739C22.6915 46.8287 22.1463 46.0907 22.0067 44.0164C22.0001 43.8502 21.9801 43.6374 21.9801 43.4313C21.9801 43.1853 21.9801 43.0723 22.0067 42.8728C22.02 42.7465 22.0333 42.7 22.0932 42.7133C22.1198 42.7265 22.1596 42.8063 22.1862 42.8861C22.2195 42.9925 22.266 43.1122 22.3458 43.2252C23.3364 45.1732 26.7472 45.4658 27.904 45.4458C30.3041 45.4059 31.2881 44.6879 32.0195 43.6308C32.4383 43.0257 32.5979 42.2944 32.4649 41.6428C32.2788 40.6788 31.574 40.2001 30.3706 40.2001C28.6486 40.2001 27.3389 41.5763 27.3389 43.3848L27.3322 43.6308L27.3256 44.1693C27.3256 44.3089 27.3056 44.3488 27.2724 44.3554C27.2126 44.3621 27.1527 44.3355 27.0596 44.2956L24.9055 43.0457C24.8457 43.0191 24.7127 42.9194 24.6529 42.8462C24.5864 42.7531 24.5864 42.6667 24.5864 42.5337C24.6063 40.6256 24.6329 38.4648 24.6927 37.0886C24.839 34.3627 25.0584 31.6766 25.3643 29.0903C25.3908 28.9108 25.4374 28.738 25.4773 28.6382C25.5238 28.5651 25.6634 28.4122 25.7565 28.3324C25.7565 28.3324 28.2697 26.2182 28.2697 26.2182Z" fill="#4A4A49"/>
<path d="M122.287 39.5352C122.759 39.1429 124.262 37.8664 124.853 37.401C124.933 37.3212 124.973 37.2813 125 37.3079C125.046 37.3278 125.02 37.4276 125.02 37.5206C124.927 39.4886 124.873 41.4566 124.873 43.3714V43.644V45.3394C124.927 46.2103 125.066 46.7223 125.325 46.9284C125.618 47.1744 126.183 47.4204 127.267 47.2541L127.4 47.2408C127.446 47.2275 127.533 47.2142 127.553 47.2541C127.566 47.3073 127.413 47.3938 127.327 47.4204L127.32 47.4469C126.469 47.8658 125.731 48.0985 125.059 48.1318L124.7 48.1517C124.069 48.1185 123.457 47.8459 122.985 47.4137L122.832 47.2608C122.759 47.1943 122.686 47.1145 122.633 47.0081C122.3 46.5427 122.134 46.1571 122.114 45.4524C122.088 44.7543 122.121 41.0444 122.154 39.9341C122.154 39.8476 122.154 39.7346 122.174 39.6681C122.214 39.6016 122.214 39.6016 122.287 39.5352Z" fill="#4A4A49"/>
<path d="M99.8881 45.3728C99.2298 45.8714 98.4054 46.0908 97.6342 45.9645C96.6569 45.8315 96.0851 45.4193 96.105 44.8409C96.1316 44.2292 96.5837 43.8901 97.4547 43.8436C98.0996 43.8037 98.9107 44.2691 99.8881 45.2132L99.9745 45.293L99.8881 45.3728ZM120.944 41.6429C120.399 38.6245 118.039 38.2987 117.041 38.2987C115.479 38.3053 114.156 38.8638 113.425 39.8412L113.238 40.0739L113.252 39.768C113.285 38.8771 113.298 37.9862 113.358 37.0953C113.644 31.6568 114.209 27.4748 114.362 26.3313C114.362 26.3313 114.389 26.185 114.322 26.1584C114.262 26.1119 114.156 26.2116 114.156 26.2116C114.156 26.2116 111.636 28.3192 111.649 28.3126C111.57 28.3857 111.403 28.5386 111.377 28.6184C111.317 28.7181 111.27 28.891 111.25 29.0705C110.951 31.6634 110.725 34.3428 110.592 37.0687C110.506 38.4383 110.479 40.6057 110.453 42.5139C110.453 42.6469 110.479 42.7399 110.546 42.8264C110.606 42.9062 110.739 43.0059 110.778 43.0258L112.959 44.2758C113.026 44.309 113.112 44.3422 113.152 44.3356C113.192 44.3289 113.212 44.2891 113.212 44.1494V43.6109L113.225 43.3649C113.225 41.5565 114.548 40.1802 116.263 40.1802C117.454 40.1802 118.178 40.6589 118.364 41.623C118.491 42.2745 118.325 43.0059 117.926 43.6109C117.181 44.668 116.197 45.3794 113.803 45.426C112.667 45.4525 109.236 45.1534 108.245 43.2053C108.172 43.0923 108.132 43.0391 108.106 42.9261C108.066 42.8596 108.013 42.7133 107.973 42.7067C107.92 42.6934 107.906 42.7732 107.9 42.8929C107.886 42.9527 107.853 43.0923 107.853 43.1389C107.767 43.7239 107.487 44.4819 107.049 44.8342C106.59 45.2198 105.566 45.2664 104.761 45.1534C104.396 45.1002 103.684 44.9672 103.006 44.7412L102.893 44.7013L102.94 44.6082C103.625 42.9128 103.664 40.9249 103.006 39.8744C102.375 38.8239 101.238 38.1325 99.9811 37.9796C98.7445 37.8466 96.956 38.0394 95.9787 38.7973C95.4801 39.1763 95.3005 40.147 95.2407 40.7853C95.2208 40.9182 95.2141 41.0446 95.2606 41.0512C95.2939 41.0778 95.3737 41.0047 95.4734 40.9182C95.9189 40.5659 96.6768 40.0739 97.5012 39.9143C98.4852 39.7348 99.3495 39.9409 99.7817 40.1736C100.885 40.7653 101.065 41.8158 101.098 42.1216C101.145 42.4408 101.125 42.7732 101.052 43.1322L101.025 43.3117L100.892 43.1854C99.4758 41.849 98.5783 41.4634 97.3151 41.6629C96.71 41.7692 96.0119 42.1017 95.4734 42.7532C95.1543 43.0458 94.3498 44.196 93.5852 44.4885C92.0826 45.1068 85.5604 44.8143 84.6163 44.2359C84.0578 43.8968 84.131 43.0458 84.1708 42.7399V42.7C84.1775 42.4939 84.2972 40.6922 84.3371 39.7348C84.3703 39.0101 84.2506 38.5181 83.978 38.2389C83.6788 37.9463 83.1935 37.8532 82.8677 37.8532C82.5552 37.8665 82.0433 37.9796 81.3851 38.5447C79.457 40.2135 78.606 41.4568 78.2403 42.0352C78.1871 42.1017 78.1207 42.228 78.0741 42.2413C77.9677 42.2812 77.9677 42.115 77.981 42.0485C77.9877 40.6656 78.1472 36.8892 78.1472 36.703C78.4331 31.2579 78.985 27.0759 79.1578 25.9324L79.1645 25.8925C79.1778 25.806 79.1844 25.7063 79.1578 25.7063C79.0913 25.6664 79.0182 25.7329 79.0116 25.7462C79.0116 25.7462 76.4319 27.9203 76.4319 27.907C76.3521 27.9801 76.2059 28.1397 76.1593 28.2128C76.1061 28.3059 76.053 28.4854 76.0397 28.6716L76.033 28.7447C75.8003 30.726 75.4878 33.4386 75.3748 36.6631C75.182 41.8224 75.2086 44.3489 75.2751 46.9884C75.295 47.6732 75.6407 47.866 75.8468 47.9125C75.9133 47.9325 76.5316 48.092 76.7909 47.6C78.2736 44.7677 79.3972 43.2053 81.4383 41.1509C81.5181 41.0645 81.6377 40.9714 81.784 40.998C81.9303 41.0379 81.9236 41.1775 81.9103 41.3371L81.8438 42.2014C81.8173 42.5737 81.804 42.9128 81.7707 43.7372C81.7375 44.555 81.8173 46.5296 83.1403 47.2676C84.5232 48.0322 91.3446 47.8992 91.3446 47.8992C93.5453 47.9258 93.911 47.4937 94.3432 46.9817C94.536 46.749 94.6889 46.4698 94.8085 46.1772C95.254 47.2942 96.3577 47.7795 96.4175 47.8061C96.4175 47.8061 97.0225 48.0588 97.9999 48.092C98.7578 48.112 99.5822 47.8992 100.393 47.4737C100.626 47.354 100.965 47.1213 101.317 46.8022L101.391 46.749L101.45 46.8022C101.736 47.0416 102.089 47.2676 102.508 47.507C103.558 48.092 105.519 48.0122 105.519 48.0122C107.441 47.9524 108.119 47.0881 108.272 46.5429C108.298 46.4232 108.332 46.2903 108.358 46.1373C108.591 46.6825 108.89 47.0283 109.249 47.3208C110.426 48.2848 112.254 48.4045 114.043 48.3646C116.13 48.338 117.999 47.4471 118.684 46.9019C120.898 45.1667 121.13 42.7067 120.944 41.6429Z" fill="#4A4A49"/>
<path d="M71.9109 31.7765C70.8671 30.1808 69.3977 29.0506 67.2968 28.2195C66.2729 27.8206 65.0629 27.6145 63.4805 27.5879C63.4805 27.5879 61.6654 27.548 60.6615 27.4682C60.0631 27.4017 59.6443 27.2155 59.3517 27.0028C59.1922 26.8898 59.1589 26.79 59.0459 26.79C58.9329 26.81 58.9329 27.0959 58.9129 27.3485C58.7667 29.1436 58.288 35.1406 58.2148 36.6166C58.155 37.9862 58.1218 40.1537 58.1085 42.0751C58.1085 42.2147 58.1151 42.2945 58.1749 42.3942C58.2281 42.4607 58.3678 42.5671 58.4076 42.5937L60.5884 43.8436C60.6615 43.8835 60.728 43.9101 60.7745 43.8901C60.8144 43.8702 60.8344 43.8037 60.8344 43.6508V43.1854L60.8543 42.9394L60.8876 39.7082L60.9075 39.2561C60.9274 38.445 60.954 37.4277 61.0006 36.6299C61.0538 35.2803 61.1734 33.9107 61.2732 32.5809H61.2865C61.3064 32.2419 61.3596 31.6834 61.599 31.3177C61.9314 30.7925 62.3436 30.6795 62.7159 30.5797C63.1348 30.4999 64.2717 30.367 65.9604 31.0119C67.2436 31.5105 68.3938 32.3682 69.0387 33.279C69.5307 33.9904 69.9296 34.9212 70.0825 35.6925C70.2953 36.8161 70.3684 39.276 69.2913 41.377C68.3738 43.1322 66.8713 44.2824 64.777 44.8143C64.1254 44.9739 63.1614 45.0869 61.9779 45.1201C60.8144 45.1268 56.3266 44.5617 55.3427 42.228C55.2429 41.9953 55.2296 41.8823 55.1166 41.8823C54.9969 41.8823 54.977 42.0153 54.9304 42.2347C54.8307 42.8397 54.6379 43.4713 54.4584 43.7771C54.219 44.1893 53.8866 45.1467 50.4693 45.0869C48.0691 45.0337 47.0785 45.0204 46.161 44.4686C45.7687 44.2159 45.6956 43.7106 45.6956 43.345C45.6956 43.192 45.9416 38.7109 45.9815 38.179C46.0014 38.0128 46.0214 37.8798 45.9349 37.84C45.8485 37.8067 45.7687 37.8931 45.649 37.9929C45.2036 38.3718 44.439 39.0035 43.9736 39.4157C43.7609 39.5752 43.6877 39.6284 43.6279 39.7481C43.5747 39.8744 43.5415 39.9874 43.5348 40.167C43.455 41.6163 43.3154 44.6348 43.3154 44.6348L43.2822 44.6614C42.8301 44.9672 41.8527 45.1334 41.4206 45.16C40.9685 45.18 39.313 45.1999 38.2625 44.5085C37.9101 44.2824 37.6974 44.0032 37.6176 43.6375C37.5245 43.1721 37.591 42.7399 37.817 42.3344C38.1362 41.8224 39.6188 39.6883 39.6188 39.6883C39.7584 39.4489 39.7717 39.3824 39.7385 39.276C39.7119 39.1364 39.5922 39.05 39.5058 38.9636C39.3196 38.804 38.9672 38.6045 38.575 38.3319C38.575 38.3319 38.2957 38.1591 38.2292 38.1125C38.1096 38.0261 37.9766 38.0328 37.8702 38.1524C37.4314 38.5647 35.8823 40.9515 36.0086 43.5577C36.0884 45.0869 36.6469 46.1773 37.3583 46.8222C38.0697 47.4804 39.313 48.1918 41.3474 48.1186C42.3314 48.0721 43.2223 47.6931 43.967 47.0216L44.0467 46.9551L44.1132 47.0216C44.2794 47.2344 44.4722 47.3806 44.6917 47.5003C46.0613 48.2649 49.1661 48.2716 50.8017 48.2649C54.3387 48.2317 55.4224 47.1612 55.7349 46.2105C55.941 46.5762 56.1737 46.8488 56.4397 47.1014C57.7694 48.2915 60.5219 48.5109 62.0378 48.5109C64.3249 48.5308 66.4657 48.2383 67.7688 47.7264C68.9789 47.2477 70.4083 46.5363 71.7314 44.8276C73.0677 43.1123 73.7791 40.6922 73.7592 38.0062C73.7392 35.4265 73.2672 33.8508 71.9109 31.7765Z" fill="#4A4A49"/>
<path d="M16.6945 43.724H16.7211C16.6081 43.6775 15.2983 42.9794 14.6401 42.248C14.1614 41.6896 13.7825 41.1776 14.6268 40.3931C14.8861 40.1803 15.2983 39.9609 15.8768 39.7415C16.1693 41.1643 16.6945 43.724 16.6945 43.724ZM22.6118 41.9356C22.9974 41.3904 23.5492 40.3333 22.7979 38.7243C22.0599 37.1154 20.4975 36.2843 18.1838 36.4904C17.6652 34.2432 16.0363 27.5414 16.0164 27.4151C15.9832 27.2821 15.8568 26.9829 15.6707 26.8832C15.4712 26.7702 15.1853 26.7502 15.0258 26.7502C14.7731 26.7502 14.0484 26.7835 13.6695 27.1226C13.2639 27.4483 13.091 27.7874 12.8583 28.3459C12.4528 29.2966 11.7613 30.8258 10.8704 32.7406C10.2654 34.0105 9.58058 35.4665 8.816 37.1154C7.8586 39.1432 5.40528 43.8769 5.15264 44.3423C4.97978 44.6615 4.74707 44.9141 4.38805 45.1335C4.04898 45.3463 3.17137 45.4194 2.69932 45.1867C1.96798 44.841 1.67544 44.4421 1.50257 43.8836C1.3962 43.5578 1.42279 43.1057 1.43609 43.0459C1.48263 42.1949 2.13419 41.6031 2.18073 41.55C2.23392 41.5034 2.27381 41.4702 2.27381 41.4236C2.26716 41.3704 2.20732 41.3704 2.12754 41.397C1.1635 41.6763 0.126323 42.6603 0.0132974 43.9102C0.0132974 43.9966 0 44.0831 0 44.1628C0 45.3862 0.784531 46.6959 1.96133 47.3475C2.61954 47.7132 5.18588 48.757 6.68846 47.1813C7.2004 46.6427 7.75888 45.7186 8.50352 44.216C9.26145 42.7267 11.0366 39.07 11.3292 38.4384C11.635 37.8201 13.3437 34.2764 14.208 32.5411L14.341 32.3018L15.3249 37.1619C13.2306 37.9597 12.3131 39.1498 11.9275 40.8452C11.4754 42.6669 13.1908 45.2731 17.4924 47.301C17.8713 47.5004 19.7728 48.1653 20.1119 48.2118C20.7635 48.2916 20.8433 47.9924 20.8698 47.8328C20.9297 47.6201 20.7834 47.0616 20.677 46.6428C20.5441 46.0976 19.3074 41.2441 18.8354 39.1897C20.0853 39.1166 21.1025 39.3426 21.7076 40.1272C22.2195 40.7787 22.3325 41.4502 22.3392 41.8624C22.3392 42.1084 22.3325 42.135 22.3658 42.1417C22.419 42.155 22.4788 42.1084 22.6118 41.9356Z" fill="#4A4A49"/>
<path d="M39.5856 35.8254C39.8715 35.5263 40.3568 34.9811 40.5962 34.7151C40.6626 34.642 40.6892 34.5955 40.7424 34.5955C40.8156 34.5955 40.8355 34.6353 40.9086 34.6885C41.2544 34.9678 41.8261 35.4332 42.0256 35.626C42.1785 35.7723 42.6173 36.2443 42.6572 37.0621C42.6838 37.2416 42.6572 37.4344 42.6173 37.6405C42.4976 38.2921 42.2184 38.8904 42.0322 39.2029C41.999 39.2627 41.9458 39.3625 41.886 39.3425C41.8261 39.3226 41.8328 39.2096 41.8394 39.1165C41.8394 39.03 41.8394 38.9968 41.8328 38.8904C41.7995 38.4649 41.6865 37.9264 41.2743 37.5009C40.882 37.1153 40.051 36.5036 39.6055 36.1778C39.5257 36.1246 39.5058 36.098 39.4858 36.0183C39.4792 35.9518 39.5058 35.9318 39.5856 35.8254Z" fill="#4A4A49"/>
<path d="M165.764 22.2025C164.774 21.1587 161.656 22.6479 159.628 24.9417C157.859 26.9429 156.762 29.8683 156.762 29.8683C157.201 29.8084 160.333 28.2992 163.092 26.1318C164.169 25.2874 166.762 23.2397 165.764 22.2025ZM164.328 55.4786C160.958 56.7285 155.486 57.7125 150.499 56.3961C149.396 56.1102 148.604 55.7977 147.993 55.5384C153.83 60.6844 159.508 62.8917 163.092 60.9104C167.719 58.3574 171.841 53.956 174.846 48.6172C171.874 52.0944 167.759 54.2153 164.328 55.4786ZM159.834 36.8426C158.757 36.6099 157.454 39.9807 158.803 40.2799C158.95 40.3132 159.149 40.3265 159.375 40.3198C160.04 40.2799 160.698 40.1403 161.343 39.9143C161.237 37.9263 160.705 37.0354 159.834 36.8426ZM151.025 22.8407C152.554 23.6319 152.321 25.7994 152.853 27.7008C153.391 29.6023 154.961 29.7619 154.961 29.7619C154.961 29.7619 158.172 23.5721 155.433 18.5591C152.687 13.5461 148.186 15.288 147.035 15.8398C145.506 16.5645 139.656 20.3409 136.717 28.266C133.805 36.1179 138 38.8039 140.586 39.2561C143.166 39.7015 147.148 37.082 147.281 35.7456C147.348 35.0342 146.823 34.5888 146.051 34.4159C145.274 34.243 143.173 34.6885 141.843 33.0995C140.194 31.1315 143.033 26.7966 144.602 25.2608C146.244 23.6718 148.658 21.6108 151.025 22.8407ZM165.392 44.1361C165.751 43.7638 166.848 42.6867 167.227 42.3077C167.3 42.2479 167.4 42.2479 167.48 42.3277C167.852 42.7 168.909 43.7372 169.295 44.1228C169.361 44.2026 169.361 44.3223 169.295 44.3887C168.909 44.7744 167.852 45.8315 167.48 46.2105C167.407 46.2836 167.3 46.2836 167.227 46.2105C166.842 45.8381 165.784 44.7744 165.392 44.3887C165.339 44.309 165.339 44.2092 165.392 44.1361ZM154.734 37.4144C154.349 37.7934 153.292 38.8505 152.919 39.2228C152.846 39.2959 152.74 39.2959 152.667 39.2228C152.281 38.8505 151.224 37.7934 150.838 37.4144C150.785 37.3413 150.785 37.2349 150.838 37.1618C151.204 36.7894 152.294 35.7124 152.667 35.34C152.74 35.2736 152.846 35.2736 152.919 35.3533C153.292 35.7257 154.349 36.7628 154.734 37.1485C154.794 37.2282 154.794 37.3479 154.734 37.4144ZM165.691 14.8891C165.306 15.268 164.249 16.3252 163.876 16.7041C163.803 16.7773 163.697 16.7773 163.624 16.7041C163.238 16.3318 162.181 15.268 161.789 14.8891C161.735 14.8159 161.735 14.7096 161.789 14.6364C162.154 14.2641 163.251 13.187 163.624 12.8147C163.69 12.7549 163.796 12.7549 163.876 12.828C164.249 13.2003 165.306 14.2375 165.691 14.6231C165.751 14.7029 165.751 14.8292 165.691 14.8891ZM163.411 52.4867C170.837 49.7874 173.164 45.7052 174.84 42.8928C178.383 36.9158 178.483 30.1941 178.184 28.2394L178.191 28.1463C178.004 26.5041 177.546 24.8885 177.18 24.8619C175.644 24.7688 173.523 35.7722 172.313 41.8889C172.187 42.5205 172.12 43.1388 171.755 43.7837C171.462 44.309 171.309 44.5151 171.123 44.7278C170.904 44.9738 170.558 45.2065 170.651 44.7478C173.45 29.9281 175.239 21.9764 176.868 18.7785C177.047 18.4261 177.233 18.22 177.433 18.1336C177.12 17.4355 176.781 16.744 176.402 16.0592C167.646 0.202383 144.363 -3.72692 131.358 3.45353C125.713 6.58501 126.212 21.4246 133.778 36.4903C133.06 32.2684 134.031 28.5186 136.132 24.1705C138.964 18.3064 147.986 9.82286 154.781 12.4424C160.579 14.6697 158.345 23.7915 158.345 23.7915C158.345 23.7915 162.374 18.4128 165.585 18.2466C167.28 18.1602 170.179 19.4034 166.689 25.088C162.606 31.7565 155.792 34.7417 153.398 33.3521C151.297 32.1288 151.257 29.7486 151.124 29.1103C150.991 28.4787 150.646 26.3512 148.691 26.1983C146.743 26.0454 143.213 28.7646 143.651 29.968C144.037 31.0251 146.617 30.1874 147.813 30.9321C149.01 31.6833 149.469 32.8003 149.037 34.7749C147.76 40.6589 142.86 44.1893 139.443 43.3649C138.632 43.1654 137.84 42.8529 137.129 42.4274C138.186 44.1162 139.29 45.7118 140.42 47.221L141.431 45.4858C141.457 45.4259 141.524 45.3993 141.584 45.3993C143.585 45.4791 145.965 44.6879 147.082 43.7837C146.211 46.6493 145.048 48.4909 141.098 48.1053C141.138 48.1585 141.178 48.2183 141.225 48.2715C141.963 48.6372 142.827 49.0161 143.837 49.4018C149.702 51.6357 154.941 48.6704 155.858 48.0654C156.589 47.5801 159.561 45.8315 160.818 43.4579C160.333 43.5377 159.834 43.5643 159.315 43.5377C158.943 43.5178 158.577 43.4779 158.464 43.4779C157.879 43.4513 154.794 42.9726 156.796 38.3186C157.155 37.4875 158.498 34.2696 160.432 34.981C161.004 35.1938 162.44 35.7257 162.912 37.9795C162.992 38.3585 163.045 38.7375 163.092 39.1164C164.913 37.9795 166.343 36.1778 166.695 34.1898C167.028 32.2817 166.596 31.3044 166.064 31.2179C165.339 31.0916 164.029 34.7084 163.823 34.6021C163.624 34.4957 163.83 33.997 163.989 33.4519C165.239 29.2101 167.081 27.6011 167.706 27.5945C168.331 27.5878 169.155 29.5425 169.162 32.1487C169.169 36.2376 166.755 40.9714 162.985 42.7798C162.653 44.6879 161.915 46.3501 161.004 47.5003C158.458 50.7115 153.032 54.0358 146.098 52.4668C145.506 52.3338 144.941 52.1809 144.416 52.0147C145.028 52.6729 145.639 53.3045 146.251 53.9028C146.49 53.956 146.929 54.0491 147.787 54.1954C150.699 54.6874 156.975 54.827 163.411 52.4867Z" fill="#C31728"/>
</svg>
